<svg xmlns="http://www.w3.org/2000/svg" xmlns:xlink="http://www.w3.org/1999/xlink" contentStyleType="text/css" data-diagram-type="CLASS" height="1511px" preserveAspectRatio="none" style="width:1108px;height:1511px;background:#FFFFFF;" version="1.1" viewBox="0 0 1108 1511" width="1108px" zoomAndPan="magnify"><defs/><g><!--cluster User Aggregate--><g class="cluster" data-entity="User Aggregate" data-source-line="11" data-uid="ent0002" id="cluster_User Aggregate"><rect fill="none" height="523" rx="2.5" ry="2.5" style="stroke:#000000;stroke-width:1.5;" width="230" x="7" y="7"/><text fill="#000000" font-family="sans-serif" font-size="14" font-weight="bold" lengthAdjust="spacing" textLength="104.2549" x="69.8726" y="24.1074">User Aggregate</text></g><!--cluster Game Aggregate--><g class="cluster" data-entity="Game Aggregate" data-source-line="39" data-uid="ent0006" id="cluster_Game Aggregate"><rect fill="none" height="689" rx="2.5" ry="2.5" style="stroke:#000000;stroke-width:1.5;" width="535" x="259" y="816"/><text fill="#000000" font-family="sans-serif" font-size="14" font-weight="bold" lengthAdjust="spacing" textLength="112.0342" x="470.4829" y="833.1074">Game Aggregate</text></g><!--cluster Order Aggregate--><g class="cluster" data-entity="Order Aggregate" data-source-line="90" data-uid="ent0016" id="cluster_Order Aggregate"><rect fill="none" height="476.5" rx="2.5" ry="2.5" style="stroke:#000000;stroke-width:1.5;" width="384" x="261" y="314"/><text fill="#000000" font-family="sans-serif" font-size="14" font-weight="bold" lengthAdjust="spacing" textLength="111.248" x="397.376" y="331.1074">Order Aggregate</text></g><!--cluster Library Aggregate--><g class="cluster" data-entity="Library Aggregate" data-source-line="125" data-uid="ent0022" id="cluster_Library Aggregate"><rect fill="none" height="717.5" rx="2.5" ry="2.5" style="stroke:#000000;stroke-width:1.5;" width="284" x="818" y="342"/><text fill="#000000" font-family="sans-serif" font-size="14" font-weight="bold" lengthAdjust="spacing" textLength="120.5859" x="899.707" y="359.1074">Library Aggregate</text></g><!--class User--><g class="entity" data-entity="User" data-source-line="13" data-uid="ent0003" id="entity_User"><rect fill="#F1F1F1" height="246.793" rx="2.5" ry="2.5" style="stroke:#181818;stroke-width:0.5;" width="197.6025" x="23" y="44"/><ellipse cx="70.8481" cy="66.291" fill="#ADD1B2" rx="11" ry="11" style="stroke:#181818;stroke-width:1;"/><path d="M73.6138,62.166 Q73.77,61.9473 73.9575,61.8379 Q74.145,61.7285 74.3638,61.7285 Q74.7388,61.7285 74.9731,61.9941 Q75.2075,62.2441 75.2075,62.8535 L75.2075,64.3066 Q75.2075,64.916 74.9731,65.1816 Q74.7388,65.4473 74.3638,65.4473 Q74.02,65.4473 73.8169,65.2441 Q73.6138,65.0566 73.5044,64.541 Q73.4575,64.1816 73.27,63.9941 Q72.9419,63.6191 72.3325,63.4004 Q71.7231,63.1816 71.0981,63.1816 Q70.3325,63.1816 69.6919,63.5098 Q69.0669,63.8379 68.5669,64.5879 Q68.0825,65.3379 68.0825,66.3691 L68.0825,67.4629 Q68.0825,68.6973 68.9731,69.5254 Q69.8638,70.3379 71.4575,70.3379 Q72.395,70.3379 73.0513,70.0879 Q73.4419,69.9316 73.8638,69.4941 Q74.1294,69.2285 74.27,69.1504 Q74.4263,69.0723 74.6294,69.0723 Q74.9575,69.0723 75.2075,69.3379 Q75.4731,69.5879 75.4731,69.9316 Q75.4731,70.2754 75.1294,70.6816 Q74.6294,71.2598 73.8325,71.5879 Q72.7544,72.041 71.4575,72.041 Q69.9419,72.041 68.7388,71.416 Q67.7544,70.916 67.0669,69.8535 Q66.3794,68.7754 66.3794,67.4941 L66.3794,66.3379 Q66.3794,65.0098 66.9888,63.8691 Q67.6138,62.7129 68.7075,62.1035 Q69.8013,61.4785 71.0356,61.4785 Q71.77,61.4785 72.4106,61.6504 Q73.0669,61.8066 73.6138,62.166 Z " fill="#000000"/><text fill="#000000" font-family="sans-serif" font-size="12" font-style="italic" lengthAdjust="spacing" textLength="97.4063" x="89.3481" y="61.9492">&#171;Aggregate Root&#187;</text><text fill="#000000" font-family="sans-serif" font-size="14" font-weight="bold" lengthAdjust="spacing" textLength="31.1309" x="122.4858" y="80.0684">User</text><line style="stroke:#181818;stroke-width:0.5;" x1="24" x2="219.6025" y1="88.582" y2="88.582"/><text fill="#000000" font-family="sans-serif" font-size="14" lengthAdjust="spacing" textLength="57.5586" x="29" y="107.6895">-id: UUID</text><text fill="#000000" font-family="sans-serif" font-size="14" lengthAdjust="spacing" textLength="111.2686" x="29" y="126.3105">-username: String</text><text fill="#000000" font-family="sans-serif" font-size="14" lengthAdjust="spacing" textLength="82.4688" x="29" y="144.9316">-email: String</text><text fill="#000000" font-family="sans-serif" font-size="14" lengthAdjust="spacing" textLength="141.6133" x="29" y="163.5527">-passwordHash: String</text><text fill="#000000" font-family="sans-serif" font-size="14" lengthAdjust="spacing" textLength="64.5791" x="29" y="182.1738">-role: Role</text><text fill="#000000" font-family="sans-serif" font-size="14" lengthAdjust="spacing" textLength="98.8408" x="29" y="200.7949">-active: boolean</text><text fill="#000000" font-family="sans-serif" font-size="14" lengthAdjust="spacing" textLength="166.5166" x="29" y="219.416">-createdAt: LocalDateTime</text><line style="stroke:#181818;stroke-width:1;" x1="24" x2="219.6025" y1="226.9297" y2="226.9297"/><text fill="#000000" font-family="sans-serif" font-size="14" lengthAdjust="spacing" textLength="114.7822" x="29" y="246.0371">+deactivate(): void</text><text fill="#000000" font-family="sans-serif" font-size="14" lengthAdjust="spacing" textLength="185.6025" x="29" y="264.6582">+changeRole(role: Role): void</text><text fill="#000000" font-family="sans-serif" font-size="14" lengthAdjust="spacing" textLength="123.3408" x="29" y="283.2793">+isActive(): boolean</text></g><!--class Role--><g class="entity" data-entity="Role" data-source-line="27" data-uid="ent0004" id="entity_Role"><rect fill="#F1F1F1" height="116.4453" rx="2.5" ry="2.5" style="stroke:#181818;stroke-width:0.5;" width="110.0547" x="67" y="398"/><ellipse cx="82" cy="420.291" fill="#EB937F" rx="11" ry="11" style="stroke:#181818;stroke-width:1;"/><path d="M80.8594,421.0879 L80.8594,423.5879 L85.1875,423.5879 L85.1875,422.666 Q85.1875,422.0566 85.4219,421.791 Q85.6719,421.5254 86.0469,421.5254 Q86.4219,421.5254 86.6563,421.791 Q86.8906,422.0566 86.8906,422.666 L86.8906,425.291 L78.8906,425.291 Q78.2656,425.291 78,425.0566 Q77.75,424.8223 77.75,424.4316 Q77.75,424.0566 78.0156,423.8223 Q78.2813,423.5879 78.8906,423.5879 L79.1563,423.5879 L79.1563,416.9316 L78.8906,416.9316 Q78.2656,416.9316 78,416.6973 Q77.75,416.4629 77.75,416.0723 Q77.75,415.6973 78,415.4629 Q78.2656,415.2285 78.8906,415.2285 L86.5156,415.2285 L86.5156,417.8223 Q86.5156,418.4316 86.2813,418.6973 Q86.0625,418.9473 85.6719,418.9473 Q85.2969,418.9473 85.0625,418.6973 Q84.8281,418.4316 84.8281,417.8223 L84.8281,416.9316 L80.8594,416.9316 L80.8594,419.3848 L82.3438,419.3848 Q82.3438,418.7285 82.4688,418.541 Q82.7344,418.1348 83.2031,418.1348 Q83.5781,418.1348 83.8125,418.4004 Q84.0469,418.6504 84.0469,419.2598 L84.0469,421.2285 Q84.0469,421.7754 83.9219,421.9629 Q83.6563,422.3535 83.2031,422.3535 Q82.7344,422.3535 82.4688,421.9473 Q82.3438,421.7598 82.3438,421.0879 L80.8594,421.0879 Z " fill="#000000"/><text fill="#000000" font-family="sans-serif" font-size="12" font-style="italic" lengthAdjust="spacing" textLength="82.0547" x="94" y="415.9492">&#171;Value Object&#187;</text><text fill="#000000" font-family="sans-serif" font-size="14" font-weight="bold" lengthAdjust="spacing" textLength="30.3379" x="119.8584" y="434.0684">Role</text><line style="stroke:#181818;stroke-width:0.5;" x1="68" x2="176.0547" y1="442.582" y2="442.582"/><text fill="#000000" font-family="sans-serif" font-size="14" lengthAdjust="spacing" textLength="45.1104" x="73" y="461.6895">ADMIN</text><text fill="#000000" font-family="sans-serif" font-size="14" lengthAdjust="spacing" textLength="79.3584" x="73" y="480.3105">PUBLISHER</text><text fill="#000000" font-family="sans-serif" font-size="14" lengthAdjust="spacing" textLength="48.2344" x="73" y="498.9316">BUYER</text><line style="stroke:#181818;stroke-width:0.5;" x1="68" x2="176.0547" y1="506.4453" y2="506.4453"/></g><!--class Game--><g class="entity" data-entity="Game" data-source-line="41" data-uid="ent0007" id="entity_Game"><rect fill="#F1F1F1" height="265.4141" rx="2.5" ry="2.5" style="stroke:#181818;stroke-width:0.5;" width="246.6025" x="530.5" y="853"/><ellipse cx="602.8481" cy="875.291" fill="#ADD1B2" rx="11" ry="11" style="stroke:#181818;stroke-width:1;"/><path d="M605.6138,871.166 Q605.77,870.9473 605.9575,870.8379 Q606.145,870.7285 606.3638,870.7285 Q606.7388,870.7285 606.9731,870.9941 Q607.2075,871.2441 607.2075,871.8535 L607.2075,873.3066 Q607.2075,873.916 606.9731,874.1816 Q606.7388,874.4473 606.3638,874.4473 Q606.02,874.4473 605.8169,874.2441 Q605.6138,874.0566 605.5044,873.541 Q605.4575,873.1816 605.27,872.9941 Q604.9419,872.6191 604.3325,872.4004 Q603.7231,872.1816 603.0981,872.1816 Q602.3325,872.1816 601.6919,872.5098 Q601.0669,872.8379 600.5669,873.5879 Q600.0825,874.3379 600.0825,875.3691 L600.0825,876.4629 Q600.0825,877.6973 600.9731,878.5254 Q601.8638,879.3379 603.4575,879.3379 Q604.395,879.3379 605.0513,879.0879 Q605.4419,878.9316 605.8638,878.4941 Q606.1294,878.2285 606.27,878.1504 Q606.4263,878.0723 606.6294,878.0723 Q606.9575,878.0723 607.2075,878.3379 Q607.4731,878.5879 607.4731,878.9316 Q607.4731,879.2754 607.1294,879.6816 Q606.6294,880.2598 605.8325,880.5879 Q604.7544,881.041 603.4575,881.041 Q601.9419,881.041 600.7388,880.416 Q599.7544,879.916 599.0669,878.8535 Q598.3794,877.7754 598.3794,876.4941 L598.3794,875.3379 Q598.3794,874.0098 598.9888,872.8691 Q599.6138,871.7129 600.7075,871.1035 Q601.8013,870.4785 603.0356,870.4785 Q603.77,870.4785 604.4106,870.6504 Q605.0669,870.8066 605.6138,871.166 Z " fill="#000000"/><text fill="#000000" font-family="sans-serif" font-size="12" font-style="italic" lengthAdjust="spacing" textLength="97.4063" x="621.3481" y="870.9492">&#171;Aggregate Root&#187;</text><text fill="#000000" font-family="sans-serif" font-size="14" font-weight="bold" lengthAdjust="spacing" textLength="38.9102" x="650.5962" y="889.0684">Game</text><line style="stroke:#181818;stroke-width:0.5;" x1="531.5" x2="776.1025" y1="897.582" y2="897.582"/><text fill="#000000" font-family="sans-serif" font-size="14" lengthAdjust="spacing" textLength="57.5586" x="536.5" y="916.6895">-id: UUID</text><text fill="#000000" font-family="sans-serif" font-size="14" lengthAdjust="spacing" textLength="70.7998" x="536.5" y="935.3105">-title: String</text><text fill="#000000" font-family="sans-serif" font-size="14" lengthAdjust="spacing" textLength="116.7168" x="536.5" y="953.9316">-description: String</text><text fill="#000000" font-family="sans-serif" font-size="14" lengthAdjust="spacing" textLength="113.5859" x="536.5" y="972.5527">-price: BigDecimal</text><text fill="#000000" font-family="sans-serif" font-size="14" lengthAdjust="spacing" textLength="127.6064" x="536.5" y="991.1738">-status: GameStatus</text><text fill="#000000" font-family="sans-serif" font-size="14" lengthAdjust="spacing" textLength="111.2686" x="536.5" y="1009.7949">-rawgApiId: String</text><text fill="#000000" font-family="sans-serif" font-size="14" lengthAdjust="spacing" textLength="166.5166" x="536.5" y="1028.416">-createdAt: LocalDateTime</text><line style="stroke:#181818;stroke-width:1;" x1="531.5" x2="776.1025" y1="1035.9297" y2="1035.9297"/><text fill="#000000" font-family="sans-serif" font-size="14" lengthAdjust="spacing" textLength="101.5547" x="536.5" y="1055.0371">+approve(): void</text><text fill="#000000" font-family="sans-serif" font-size="14" lengthAdjust="spacing" textLength="97.6445" x="536.5" y="1073.6582">+remove(): void</text><text fill="#000000" font-family="sans-serif" font-size="14" lengthAdjust="spacing" textLength="184.8232" x="536.5" y="1092.2793">+addFile(filename, path): void</text><text fill="#000000" font-family="sans-serif" font-size="14" lengthAdjust="spacing" textLength="234.6025" x="536.5" y="1110.9004">+updatePrice(price: BigDecimal): void</text></g><!--class Category--><g class="entity" data-entity="Category" data-source-line="56" data-uid="ent0008" id="entity_Category"><rect fill="#F1F1F1" height="116.4453" rx="2.5" ry="2.5" style="stroke:#181818;stroke-width:0.5;" width="128.7168" x="275.5" y="1187.5"/><ellipse cx="306.7154" cy="1209.791" fill="#ADD1B2" rx="11" ry="11" style="stroke:#181818;stroke-width:1;"/><path d="M309.481,1205.666 Q309.6373,1205.4473 309.8248,1205.3379 Q310.0123,1205.2285 310.231,1205.2285 Q310.606,1205.2285 310.8404,1205.4941 Q311.0748,1205.7441 311.0748,1206.3535 L311.0748,1207.8066 Q311.0748,1208.416 310.8404,1208.6816 Q310.606,1208.9473 310.231,1208.9473 Q309.8873,1208.9473 309.6841,1208.7441 Q309.481,1208.5566 309.3716,1208.041 Q309.3248,1207.6816 309.1373,1207.4941 Q308.8091,1207.1191 308.1998,1206.9004 Q307.5904,1206.6816 306.9654,1206.6816 Q306.1998,1206.6816 305.5591,1207.0098 Q304.9341,1207.3379 304.4341,1208.0879 Q303.9498,1208.8379 303.9498,1209.8691 L303.9498,1210.9629 Q303.9498,1212.1973 304.8404,1213.0254 Q305.731,1213.8379 307.3248,1213.8379 Q308.2623,1213.8379 308.9185,1213.5879 Q309.3091,1213.4316 309.731,1212.9941 Q309.9966,1212.7285 310.1373,1212.6504 Q310.2935,1212.5723 310.4966,1212.5723 Q310.8248,1212.5723 311.0748,1212.8379 Q311.3404,1213.0879 311.3404,1213.4316 Q311.3404,1213.7754 310.9966,1214.1816 Q310.4966,1214.7598 309.6998,1215.0879 Q308.6216,1215.541 307.3248,1215.541 Q305.8091,1215.541 304.606,1214.916 Q303.6216,1214.416 302.9341,1213.3535 Q302.2466,1212.2754 302.2466,1210.9941 L302.2466,1209.8379 Q302.2466,1208.5098 302.856,1207.3691 Q303.481,1206.2129 304.5748,1205.6035 Q305.6685,1204.9785 306.9029,1204.9785 Q307.6373,1204.9785 308.2779,1205.1504 Q308.9341,1205.3066 309.481,1205.666 Z " fill="#000000"/><text fill="#000000" font-family="sans-serif" font-size="12" font-style="italic" lengthAdjust="spacing" textLength="43.3594" x="332.9804" y="1205.4492">&#171;Entity&#187;</text><text fill="#000000" font-family="sans-serif" font-size="14" font-weight="bold" lengthAdjust="spacing" textLength="60.6826" x="324.3188" y="1223.5684">Category</text><line style="stroke:#181818;stroke-width:0.5;" x1="276.5" x2="403.2168" y1="1232.082" y2="1232.082"/><text fill="#000000" font-family="sans-serif" font-size="14" lengthAdjust="spacing" textLength="57.5586" x="281.5" y="1251.1895">-id: UUID</text><text fill="#000000" font-family="sans-serif" font-size="14" lengthAdjust="spacing" textLength="84.0342" x="281.5" y="1269.8105">-name: String</text><text fill="#000000" font-family="sans-serif" font-size="14" lengthAdjust="spacing" textLength="116.7168" x="281.5" y="1288.4316">-description: String</text><line style="stroke:#181818;stroke-width:0.5;" x1="276.5" x2="403.2168" y1="1295.9453" y2="1295.9453"/></g><!--class GameFile--><g class="entity" data-entity="GameFile" data-source-line="62" data-uid="ent0009" id="entity_GameFile"><rect fill="#F1F1F1" height="135.0664" rx="2.5" ry="2.5" style="stroke:#181818;stroke-width:0.5;" width="189.4336" x="439.5" y="1178"/><ellipse cx="490.9395" cy="1200.291" fill="#ADD1B2" rx="11" ry="11" style="stroke:#181818;stroke-width:1;"/><path d="M493.7051,1196.166 Q493.8613,1195.9473 494.0488,1195.8379 Q494.2363,1195.7285 494.4551,1195.7285 Q494.8301,1195.7285 495.0645,1195.9941 Q495.2988,1196.2441 495.2988,1196.8535 L495.2988,1198.3066 Q495.2988,1198.916 495.0645,1199.1816 Q494.8301,1199.4473 494.4551,1199.4473 Q494.1113,1199.4473 493.9082,1199.2441 Q493.7051,1199.0566 493.5957,1198.541 Q493.5488,1198.1816 493.3613,1197.9941 Q493.0332,1197.6191 492.4238,1197.4004 Q491.8145,1197.1816 491.1895,1197.1816 Q490.4238,1197.1816 489.7832,1197.5098 Q489.1582,1197.8379 488.6582,1198.5879 Q488.1738,1199.3379 488.1738,1200.3691 L488.1738,1201.4629 Q488.1738,1202.6973 489.0645,1203.5254 Q489.9551,1204.3379 491.5488,1204.3379 Q492.4863,1204.3379 493.1426,1204.0879 Q493.5332,1203.9316 493.9551,1203.4941 Q494.2207,1203.2285 494.3613,1203.1504 Q494.5176,1203.0723 494.7207,1203.0723 Q495.0488,1203.0723 495.2988,1203.3379 Q495.5645,1203.5879 495.5645,1203.9316 Q495.5645,1204.2754 495.2207,1204.6816 Q494.7207,1205.2598 493.9238,1205.5879 Q492.8457,1206.041 491.5488,1206.041 Q490.0332,1206.041 488.8301,1205.416 Q487.8457,1204.916 487.1582,1203.8535 Q486.4707,1202.7754 486.4707,1201.4941 L486.4707,1200.3379 Q486.4707,1199.0098 487.0801,1197.8691 Q487.7051,1196.7129 488.7988,1196.1035 Q489.8926,1195.4785 491.127,1195.4785 Q491.8613,1195.4785 492.502,1195.6504 Q493.1582,1195.8066 493.7051,1196.166 Z " fill="#000000"/><text fill="#000000" font-family="sans-serif" font-size="12" font-style="italic" lengthAdjust="spacing" textLength="82.0547" x="509.4395" y="1195.9492">&#171;Value Object&#187;</text><text fill="#000000" font-family="sans-serif" font-size="14" font-weight="bold" lengthAdjust="spacing" textLength="63.0273" x="518.9531" y="1214.0684">GameFile</text><line style="stroke:#181818;stroke-width:0.5;" x1="440.5" x2="627.9336" y1="1222.582" y2="1222.582"/><text fill="#000000" font-family="sans-serif" font-size="14" lengthAdjust="spacing" textLength="101.9307" x="445.5" y="1241.6895">-filename: String</text><text fill="#000000" font-family="sans-serif" font-size="14" lengthAdjust="spacing" textLength="76.2617" x="445.5" y="1260.3105">-path: String</text><text fill="#000000" font-family="sans-serif" font-size="14" lengthAdjust="spacing" textLength="115.1445" x="445.5" y="1278.9316">-fileType: FileType</text><text fill="#000000" font-family="sans-serif" font-size="14" lengthAdjust="spacing" textLength="177.4336" x="445.5" y="1297.5527">-uploadedAt: LocalDateTime</text><line style="stroke:#181818;stroke-width:0.5;" x1="440.5" x2="627.9336" y1="1305.0664" y2="1305.0664"/></g><!--class GameStatus--><g class="entity" data-entity="GameStatus" data-source-line="69" data-uid="ent0010" id="entity_GameStatus"><rect fill="#F1F1F1" height="116.4453" rx="2.5" ry="2.5" style="stroke:#181818;stroke-width:0.5;" width="113.6963" x="664" y="1187.5"/><ellipse cx="679" cy="1209.791" fill="#EB937F" rx="11" ry="11" style="stroke:#181818;stroke-width:1;"/><path d="M677.8594,1210.5879 L677.8594,1213.0879 L682.1875,1213.0879 L682.1875,1212.166 Q682.1875,1211.5566 682.4219,1211.291 Q682.6719,1211.0254 683.0469,1211.0254 Q683.4219,1211.0254 683.6563,1211.291 Q683.8906,1211.5566 683.8906,1212.166 L683.8906,1214.791 L675.8906,1214.791 Q675.2656,1214.791 675,1214.5566 Q674.75,1214.3223 674.75,1213.9316 Q674.75,1213.5566 675.0156,1213.3223 Q675.2813,1213.0879 675.8906,1213.0879 L676.1563,1213.0879 L676.1563,1206.4316 L675.8906,1206.4316 Q675.2656,1206.4316 675,1206.1973 Q674.75,1205.9629 674.75,1205.5723 Q674.75,1205.1973 675,1204.9629 Q675.2656,1204.7285 675.8906,1204.7285 L683.5156,1204.7285 L683.5156,1207.3223 Q683.5156,1207.9316 683.2813,1208.1973 Q683.0625,1208.4473 682.6719,1208.4473 Q682.2969,1208.4473 682.0625,1208.1973 Q681.8281,1207.9316 681.8281,1207.3223 L681.8281,1206.4316 L677.8594,1206.4316 L677.8594,1208.8848 L679.3438,1208.8848 Q679.3438,1208.2285 679.4688,1208.041 Q679.7344,1207.6348 680.2031,1207.6348 Q680.5781,1207.6348 680.8125,1207.9004 Q681.0469,1208.1504 681.0469,1208.7598 L681.0469,1210.7285 Q681.0469,1211.2754 680.9219,1211.4629 Q680.6563,1211.8535 680.2031,1211.8535 Q679.7344,1211.8535 679.4688,1211.4473 Q679.3438,1211.2598 679.3438,1210.5879 L677.8594,1210.5879 Z " fill="#000000"/><text fill="#000000" font-family="sans-serif" font-size="12" font-style="italic" lengthAdjust="spacing" textLength="82.0547" x="692.8208" y="1205.4492">&#171;Value Object&#187;</text><text fill="#000000" font-family="sans-serif" font-size="14" font-weight="bold" lengthAdjust="spacing" textLength="81.6963" x="693" y="1223.5684">GameStatus</text><line style="stroke:#181818;stroke-width:0.5;" x1="665" x2="776.6963" y1="1232.082" y2="1232.082"/><text fill="#000000" font-family="sans-serif" font-size="14" lengthAdjust="spacing" textLength="63.7861" x="670" y="1251.1895">PENDING</text><text fill="#000000" font-family="sans-serif" font-size="14" lengthAdjust="spacing" textLength="50.5654" x="670" y="1269.8105">ACTIVE</text><text fill="#000000" font-family="sans-serif" font-size="14" lengthAdjust="spacing" textLength="70.7861" x="670" y="1288.4316">REMOVED</text><line style="stroke:#181818;stroke-width:0.5;" x1="665" x2="776.6963" y1="1295.9453" y2="1295.9453"/></g><!--class FileType--><g class="entity" data-entity="FileType" data-source-line="75" data-uid="ent0011" id="entity_FileType"><rect fill="#F1F1F1" height="116.4453" rx="2.5" ry="2.5" style="stroke:#181818;stroke-width:0.5;" width="110.0547" x="479" y="1373"/><ellipse cx="494" cy="1395.291" fill="#EB937F" rx="11" ry="11" style="stroke:#181818;stroke-width:1;"/><path d="M492.8594,1396.0879 L492.8594,1398.5879 L497.1875,1398.5879 L497.1875,1397.666 Q497.1875,1397.0566 497.4219,1396.791 Q497.6719,1396.5254 498.0469,1396.5254 Q498.4219,1396.5254 498.6563,1396.791 Q498.8906,1397.0566 498.8906,1397.666 L498.8906,1400.291 L490.8906,1400.291 Q490.2656,1400.291 490,1400.0566 Q489.75,1399.8223 489.75,1399.4316 Q489.75,1399.0566 490.0156,1398.8223 Q490.2813,1398.5879 490.8906,1398.5879 L491.1563,1398.5879 L491.1563,1391.9316 L490.8906,1391.9316 Q490.2656,1391.9316 490,1391.6973 Q489.75,1391.4629 489.75,1391.0723 Q489.75,1390.6973 490,1390.4629 Q490.2656,1390.2285 490.8906,1390.2285 L498.5156,1390.2285 L498.5156,1392.8223 Q498.5156,1393.4316 498.2813,1393.6973 Q498.0625,1393.9473 497.6719,1393.9473 Q497.2969,1393.9473 497.0625,1393.6973 Q496.8281,1393.4316 496.8281,1392.8223 L496.8281,1391.9316 L492.8594,1391.9316 L492.8594,1394.3848 L494.3438,1394.3848 Q494.3438,1393.7285 494.4688,1393.541 Q494.7344,1393.1348 495.2031,1393.1348 Q495.5781,1393.1348 495.8125,1393.4004 Q496.0469,1393.6504 496.0469,1394.2598 L496.0469,1396.2285 Q496.0469,1396.7754 495.9219,1396.9629 Q495.6563,1397.3535 495.2031,1397.3535 Q494.7344,1397.3535 494.4688,1396.9473 Q494.3438,1396.7598 494.3438,1396.0879 L492.8594,1396.0879 Z " fill="#000000"/><text fill="#000000" font-family="sans-serif" font-size="12" font-style="italic" lengthAdjust="spacing" textLength="82.0547" x="506" y="1390.9492">&#171;Value Object&#187;</text><text fill="#000000" font-family="sans-serif" font-size="14" font-weight="bold" lengthAdjust="spacing" textLength="56.793" x="518.6309" y="1409.0684">FileType</text><line style="stroke:#181818;stroke-width:0.5;" x1="480" x2="588.0547" y1="1417.582" y2="1417.582"/><text fill="#000000" font-family="sans-serif" font-size="14" lengthAdjust="spacing" textLength="45.1172" x="485" y="1436.6895">IMAGE</text><text fill="#000000" font-family="sans-serif" font-size="14" lengthAdjust="spacing" textLength="97.2344" x="485" y="1455.3105">SCREENSHOT</text><text fill="#000000" font-family="sans-serif" font-size="14" lengthAdjust="spacing" textLength="49.7861" x="485" y="1473.9316">COVER</text><line style="stroke:#181818;stroke-width:0.5;" x1="480" x2="588.0547" y1="1481.4453" y2="1481.4453"/></g><!--class Order--><g class="entity" data-entity="Order" data-source-line="92" data-uid="ent0017" id="entity_Order"><rect fill="#F1F1F1" height="209.5508" rx="2.5" ry="2.5" style="stroke:#181818;stroke-width:0.5;" width="236.499" x="335" y="351"/><ellipse cx="402.2964" cy="373.291" fill="#ADD1B2" rx="11" ry="11" style="stroke:#181818;stroke-width:1;"/><path d="M405.062,369.166 Q405.2183,368.9473 405.4058,368.8379 Q405.5933,368.7285 405.812,368.7285 Q406.187,368.7285 406.4214,368.9941 Q406.6558,369.2441 406.6558,369.8535 L406.6558,371.3066 Q406.6558,371.916 406.4214,372.1816 Q406.187,372.4473 405.812,372.4473 Q405.4683,372.4473 405.2651,372.2441 Q405.062,372.0566 404.9526,371.541 Q404.9058,371.1816 404.7183,370.9941 Q404.3901,370.6191 403.7808,370.4004 Q403.1714,370.1816 402.5464,370.1816 Q401.7808,370.1816 401.1401,370.5098 Q400.5151,370.8379 400.0151,371.5879 Q399.5308,372.3379 399.5308,373.3691 L399.5308,374.4629 Q399.5308,375.6973 400.4214,376.5254 Q401.312,377.3379 402.9058,377.3379 Q403.8433,377.3379 404.4995,377.0879 Q404.8901,376.9316 405.312,376.4941 Q405.5776,376.2285 405.7183,376.1504 Q405.8745,376.0723 406.0776,376.0723 Q406.4058,376.0723 406.6558,376.3379 Q406.9214,376.5879 406.9214,376.9316 Q406.9214,377.2754 406.5776,377.6816 Q406.0776,378.2598 405.2808,378.5879 Q404.2026,379.041 402.9058,379.041 Q401.3901,379.041 400.187,378.416 Q399.2026,377.916 398.5151,376.8535 Q397.8276,375.7754 397.8276,374.4941 L397.8276,373.3379 Q397.8276,372.0098 398.437,370.8691 Q399.062,369.7129 400.1558,369.1035 Q401.2495,368.4785 402.4839,368.4785 Q403.2183,368.4785 403.8589,368.6504 Q404.5151,368.8066 405.062,369.166 Z " fill="#000000"/><text fill="#000000" font-family="sans-serif" font-size="12" font-style="italic" lengthAdjust="spacing" textLength="97.4063" x="420.7964" y="368.9492">&#171;Aggregate Root&#187;</text><text fill="#000000" font-family="sans-serif" font-size="14" font-weight="bold" lengthAdjust="spacing" textLength="38.124" x="450.4375" y="387.0684">Order</text><line style="stroke:#181818;stroke-width:0.5;" x1="336" x2="570.499" y1="395.582" y2="395.582"/><text fill="#000000" font-family="sans-serif" font-size="14" lengthAdjust="spacing" textLength="57.5586" x="341" y="414.6895">-id: UUID</text><text fill="#000000" font-family="sans-serif" font-size="14" lengthAdjust="spacing" textLength="141.5996" x="341" y="433.3105">-totalPrice: BigDecimal</text><text fill="#000000" font-family="sans-serif" font-size="14" lengthAdjust="spacing" textLength="125.2686" x="341" y="451.9316">-status: OrderStatus</text><text fill="#000000" font-family="sans-serif" font-size="14" lengthAdjust="spacing" textLength="121.3926" x="341" y="470.5527">-invoicePath: String</text><text fill="#000000" font-family="sans-serif" font-size="14" lengthAdjust="spacing" textLength="166.5166" x="341" y="489.1738">-createdAt: LocalDateTime</text><line style="stroke:#181818;stroke-width:1;" x1="336" x2="570.499" y1="496.6875" y2="496.6875"/><text fill="#000000" font-family="sans-serif" font-size="14" lengthAdjust="spacing" textLength="224.499" x="341" y="515.7949">+complete(invoicePath: String): void</text><text fill="#000000" font-family="sans-serif" font-size="14" lengthAdjust="spacing" textLength="91.4307" x="341" y="534.416">+cancel(): void</text><text fill="#000000" font-family="sans-serif" font-size="14" lengthAdjust="spacing" textLength="182.458" x="341" y="553.0371">+calculateTotal(): BigDecimal</text></g><!--class OrderItem--><g class="entity" data-entity="OrderItem" data-source-line="104" data-uid="ent0018" id="entity_OrderItem"><rect fill="#F1F1F1" height="135.0664" rx="2.5" ry="2.5" style="stroke:#181818;stroke-width:0.5;" width="203.0508" x="277.5" y="639.5"/><ellipse cx="341.3203" cy="661.791" fill="#ADD1B2" rx="11" ry="11" style="stroke:#181818;stroke-width:1;"/><path d="M344.0859,657.666 Q344.2422,657.4473 344.4297,657.3379 Q344.6172,657.2285 344.8359,657.2285 Q345.2109,657.2285 345.4453,657.4941 Q345.6797,657.7441 345.6797,658.3535 L345.6797,659.8066 Q345.6797,660.416 345.4453,660.6816 Q345.2109,660.9473 344.8359,660.9473 Q344.4922,660.9473 344.2891,660.7441 Q344.0859,660.5566 343.9766,660.041 Q343.9297,659.6816 343.7422,659.4941 Q343.4141,659.1191 342.8047,658.9004 Q342.1953,658.6816 341.5703,658.6816 Q340.8047,658.6816 340.1641,659.0098 Q339.5391,659.3379 339.0391,660.0879 Q338.5547,660.8379 338.5547,661.8691 L338.5547,662.9629 Q338.5547,664.1973 339.4453,665.0254 Q340.3359,665.8379 341.9297,665.8379 Q342.8672,665.8379 343.5234,665.5879 Q343.9141,665.4316 344.3359,664.9941 Q344.6016,664.7285 344.7422,664.6504 Q344.8984,664.5723 345.1016,664.5723 Q345.4297,664.5723 345.6797,664.8379 Q345.9453,665.0879 345.9453,665.4316 Q345.9453,665.7754 345.6016,666.1816 Q345.1016,666.7598 344.3047,667.0879 Q343.2266,667.541 341.9297,667.541 Q340.4141,667.541 339.2109,666.916 Q338.2266,666.416 337.5391,665.3535 Q336.8516,664.2754 336.8516,662.9941 L336.8516,661.8379 Q336.8516,660.5098 337.4609,659.3691 Q338.0859,658.2129 339.1797,657.6035 Q340.2734,656.9785 341.5078,656.9785 Q342.2422,656.9785 342.8828,657.1504 Q343.5391,657.3066 344.0859,657.666 Z " fill="#000000"/><text fill="#000000" font-family="sans-serif" font-size="12" font-style="italic" lengthAdjust="spacing" textLength="43.3594" x="373.5957" y="657.4492">&#171;Entity&#187;</text><text fill="#000000" font-family="sans-serif" font-size="14" font-weight="bold" lengthAdjust="spacing" textLength="66.9102" x="361.8203" y="675.5684">OrderItem</text><line style="stroke:#181818;stroke-width:0.5;" x1="278.5" x2="479.5508" y1="684.082" y2="684.082"/><text fill="#000000" font-family="sans-serif" font-size="14" lengthAdjust="spacing" textLength="57.5586" x="283.5" y="703.1895">-id: UUID</text><text fill="#000000" font-family="sans-serif" font-size="14" lengthAdjust="spacing" textLength="113.5859" x="283.5" y="721.8105">-price: BigDecimal</text><text fill="#000000" font-family="sans-serif" font-size="14" lengthAdjust="spacing" textLength="132.2822" x="283.5" y="740.4316">-activationKey: String</text><line style="stroke:#181818;stroke-width:1;" x1="278.5" x2="479.5508" y1="747.9453" y2="747.9453"/><text fill="#000000" font-family="sans-serif" font-size="14" lengthAdjust="spacing" textLength="191.0508" x="283.5" y="767.0527">+generateActivationKey(): void</text></g><!--class OrderStatus--><g class="entity" data-entity="OrderStatus" data-source-line="112" data-uid="ent0019" id="entity_OrderStatus"><rect fill="#F1F1F1" height="116.4453" rx="2.5" ry="2.5" style="stroke:#181818;stroke-width:0.5;" width="112.9102" x="515.5" y="649"/><ellipse cx="530.5" cy="671.291" fill="#EB937F" rx="11" ry="11" style="stroke:#181818;stroke-width:1;"/><path d="M529.3594,672.0879 L529.3594,674.5879 L533.6875,674.5879 L533.6875,673.666 Q533.6875,673.0566 533.9219,672.791 Q534.1719,672.5254 534.5469,672.5254 Q534.9219,672.5254 535.1563,672.791 Q535.3906,673.0566 535.3906,673.666 L535.3906,676.291 L527.3906,676.291 Q526.7656,676.291 526.5,676.0566 Q526.25,675.8223 526.25,675.4316 Q526.25,675.0566 526.5156,674.8223 Q526.7813,674.5879 527.3906,674.5879 L527.6563,674.5879 L527.6563,667.9316 L527.3906,667.9316 Q526.7656,667.9316 526.5,667.6973 Q526.25,667.4629 526.25,667.0723 Q526.25,666.6973 526.5,666.4629 Q526.7656,666.2285 527.3906,666.2285 L535.0156,666.2285 L535.0156,668.8223 Q535.0156,669.4316 534.7813,669.6973 Q534.5625,669.9473 534.1719,669.9473 Q533.7969,669.9473 533.5625,669.6973 Q533.3281,669.4316 533.3281,668.8223 L533.3281,667.9316 L529.3594,667.9316 L529.3594,670.3848 L530.8438,670.3848 Q530.8438,669.7285 530.9688,669.541 Q531.2344,669.1348 531.7031,669.1348 Q532.0781,669.1348 532.3125,669.4004 Q532.5469,669.6504 532.5469,670.2598 L532.5469,672.2285 Q532.5469,672.7754 532.4219,672.9629 Q532.1563,673.3535 531.7031,673.3535 Q531.2344,673.3535 530.9688,672.9473 Q530.8438,672.7598 530.8438,672.0879 L529.3594,672.0879 Z " fill="#000000"/><text fill="#000000" font-family="sans-serif" font-size="12" font-style="italic" lengthAdjust="spacing" textLength="82.0547" x="543.9277" y="666.9492">&#171;Value Object&#187;</text><text fill="#000000" font-family="sans-serif" font-size="14" font-weight="bold" lengthAdjust="spacing" textLength="80.9102" x="544.5" y="685.0684">OrderStatus</text><line style="stroke:#181818;stroke-width:0.5;" x1="516.5" x2="627.4102" y1="693.582" y2="693.582"/><text fill="#000000" font-family="sans-serif" font-size="14" lengthAdjust="spacing" textLength="63.7861" x="521.5" y="712.6895">PENDING</text><text fill="#000000" font-family="sans-serif" font-size="14" lengthAdjust="spacing" textLength="87.124" x="521.5" y="731.3105">COMPLETED</text><text fill="#000000" font-family="sans-serif" font-size="14" lengthAdjust="spacing" textLength="84.0273" x="521.5" y="749.9316">CANCELLED</text><line style="stroke:#181818;stroke-width:0.5;" x1="516.5" x2="627.4102" y1="757.4453" y2="757.4453"/></g><!--class Library--><g class="entity" data-entity="Library" data-source-line="127" data-uid="ent0023" id="entity_Library"><rect fill="#F1F1F1" height="153.6875" rx="2.5" ry="2.5" style="stroke:#181818;stroke-width:0.5;" width="250.5127" x="834.5" y="379"/><ellipse cx="908.8032" cy="401.291" fill="#ADD1B2" rx="11" ry="11" style="stroke:#181818;stroke-width:1;"/><path d="M911.5688,397.166 Q911.7251,396.9473 911.9126,396.8379 Q912.1001,396.7285 912.3188,396.7285 Q912.6938,396.7285 912.9282,396.9941 Q913.1626,397.2441 913.1626,397.8535 L913.1626,399.3066 Q913.1626,399.916 912.9282,400.1816 Q912.6938,400.4473 912.3188,400.4473 Q911.9751,400.4473 911.772,400.2441 Q911.5688,400.0566 911.4595,399.541 Q911.4126,399.1816 911.2251,398.9941 Q910.897,398.6191 910.2876,398.4004 Q909.6782,398.1816 909.0532,398.1816 Q908.2876,398.1816 907.647,398.5098 Q907.022,398.8379 906.522,399.5879 Q906.0376,400.3379 906.0376,401.3691 L906.0376,402.4629 Q906.0376,403.6973 906.9282,404.5254 Q907.8188,405.3379 909.4126,405.3379 Q910.3501,405.3379 911.0063,405.0879 Q911.397,404.9316 911.8188,404.4941 Q912.0845,404.2285 912.2251,404.1504 Q912.3813,404.0723 912.5845,404.0723 Q912.9126,404.0723 913.1626,404.3379 Q913.4282,404.5879 913.4282,404.9316 Q913.4282,405.2754 913.0845,405.6816 Q912.5845,406.2598 911.7876,406.5879 Q910.7095,407.041 909.4126,407.041 Q907.897,407.041 906.6938,406.416 Q905.7095,405.916 905.022,404.8535 Q904.3345,403.7754 904.3345,402.4941 L904.3345,401.3379 Q904.3345,400.0098 904.9438,398.8691 Q905.5688,397.7129 906.6626,397.1035 Q907.7563,396.4785 908.9907,396.4785 Q909.7251,396.4785 910.3657,396.6504 Q911.022,396.8066 911.5688,397.166 Z " fill="#000000"/><text fill="#000000" font-family="sans-serif" font-size="12" font-style="italic" lengthAdjust="spacing" textLength="97.4063" x="927.3032" y="396.9492">&#171;Aggregate Root&#187;</text><text fill="#000000" font-family="sans-serif" font-size="14" font-weight="bold" lengthAdjust="spacing" textLength="47.4619" x="952.2754" y="415.0684">Library</text><line style="stroke:#181818;stroke-width:0.5;" x1="835.5" x2="1084.0127" y1="423.582" y2="423.582"/><text fill="#000000" font-family="sans-serif" font-size="14" lengthAdjust="spacing" textLength="57.5586" x="840.5" y="442.6895">-id: UUID</text><text fill="#000000" font-family="sans-serif" font-size="14" lengthAdjust="spacing" textLength="166.5166" x="840.5" y="461.3105">-createdAt: LocalDateTime</text><line style="stroke:#181818;stroke-width:1;" x1="835.5" x2="1084.0127" y1="468.8242" y2="468.8242"/><text fill="#000000" font-family="sans-serif" font-size="14" lengthAdjust="spacing" textLength="238.5127" x="840.5" y="487.9316">+addGame(game, activationKey): void</text><text fill="#000000" font-family="sans-serif" font-size="14" lengthAdjust="spacing" textLength="234.6094" x="840.5" y="506.5527">+ownsGame(gameId: UUID): boolean</text><text fill="#000000" font-family="sans-serif" font-size="14" lengthAdjust="spacing" textLength="201.9199" x="840.5" y="525.1738">+getEntries(): List&lt;LibraryEntry&gt;</text></g><!--class LibraryEntry--><g class="entity" data-entity="LibraryEntry" data-source-line="136" data-uid="ent0024" id="entity_LibraryEntry"><rect fill="#F1F1F1" height="172.3086" rx="2.5" ry="2.5" style="stroke:#181818;stroke-width:0.5;" width="185.5234" x="834" y="621"/><ellipse cx="880.8877" cy="643.291" fill="#ADD1B2" rx="11" ry="11" style="stroke:#181818;stroke-width:1;"/><path d="M883.6533,639.166 Q883.8096,638.9473 883.9971,638.8379 Q884.1846,638.7285 884.4033,638.7285 Q884.7783,638.7285 885.0127,638.9941 Q885.2471,639.2441 885.2471,639.8535 L885.2471,641.3066 Q885.2471,641.916 885.0127,642.1816 Q884.7783,642.4473 884.4033,642.4473 Q884.0596,642.4473 883.8564,642.2441 Q883.6533,642.0566 883.5439,641.541 Q883.4971,641.1816 883.3096,640.9941 Q882.9814,640.6191 882.3721,640.4004 Q881.7627,640.1816 881.1377,640.1816 Q880.3721,640.1816 879.7314,640.5098 Q879.1064,640.8379 878.6064,641.5879 Q878.1221,642.3379 878.1221,643.3691 L878.1221,644.4629 Q878.1221,645.6973 879.0127,646.5254 Q879.9033,647.3379 881.4971,647.3379 Q882.4346,647.3379 883.0908,647.0879 Q883.4814,646.9316 883.9033,646.4941 Q884.1689,646.2285 884.3096,646.1504 Q884.4658,646.0723 884.6689,646.0723 Q884.9971,646.0723 885.2471,646.3379 Q885.5127,646.5879 885.5127,646.9316 Q885.5127,647.2754 885.1689,647.6816 Q884.6689,648.2598 883.8721,648.5879 Q882.7939,649.041 881.4971,649.041 Q879.9814,649.041 878.7783,648.416 Q877.7939,647.916 877.1064,646.8535 Q876.4189,645.7754 876.4189,644.4941 L876.4189,643.3379 Q876.4189,642.0098 877.0283,640.8691 Q877.6533,639.7129 878.7471,639.1035 Q879.8408,638.4785 881.0752,638.4785 Q881.8096,638.4785 882.4502,638.6504 Q883.1064,638.8066 883.6533,639.166 Z " fill="#000000"/><text fill="#000000" font-family="sans-serif" font-size="12" font-style="italic" lengthAdjust="spacing" textLength="43.3594" x="921.332" y="638.9492">&#171;Entity&#187;</text><text fill="#000000" font-family="sans-serif" font-size="14" font-weight="bold" lengthAdjust="spacing" textLength="83.248" x="901.3877" y="657.0684">LibraryEntry</text><line style="stroke:#181818;stroke-width:0.5;" x1="835" x2="1018.5234" y1="665.582" y2="665.582"/><text fill="#000000" font-family="sans-serif" font-size="14" lengthAdjust="spacing" textLength="57.5586" x="840" y="684.6895">-id: UUID</text><text fill="#000000" font-family="sans-serif" font-size="14" lengthAdjust="spacing" textLength="132.2822" x="840" y="703.3105">-activationKey: String</text><text fill="#000000" font-family="sans-serif" font-size="14" lengthAdjust="spacing" textLength="173.5234" x="840" y="721.9316">-acquiredAt: LocalDateTime</text><text fill="#000000" font-family="sans-serif" font-size="14" lengthAdjust="spacing" textLength="122.1582" x="840" y="740.5527">-status: EntryStatus</text><line style="stroke:#181818;stroke-width:1;" x1="835" x2="1018.5234" y1="748.0664" y2="748.0664"/><text fill="#000000" font-family="sans-serif" font-size="14" lengthAdjust="spacing" textLength="90.6582" x="840" y="767.1738">+refund(): void</text><text fill="#000000" font-family="sans-serif" font-size="14" lengthAdjust="spacing" textLength="103.8926" x="840" y="785.7949">+suspend(): void</text></g><!--class EntryStatus--><g class="entity" data-entity="EntryStatus" data-source-line="146" data-uid="ent0025" id="entity_EntryStatus"><rect fill="#F1F1F1" height="116.4453" rx="2.5" ry="2.5" style="stroke:#181818;stroke-width:0.5;" width="110.5723" x="871.5" y="927.5"/><ellipse cx="886.5" cy="949.791" fill="#EB937F" rx="11" ry="11" style="stroke:#181818;stroke-width:1;"/><path d="M885.3594,950.5879 L885.3594,953.0879 L889.6875,953.0879 L889.6875,952.166 Q889.6875,951.5566 889.9219,951.291 Q890.1719,951.0254 890.5469,951.0254 Q890.9219,951.0254 891.1563,951.291 Q891.3906,951.5566 891.3906,952.166 L891.3906,954.791 L883.3906,954.791 Q882.7656,954.791 882.5,954.5566 Q882.25,954.3223 882.25,953.9316 Q882.25,953.5566 882.5156,953.3223 Q882.7813,953.0879 883.3906,953.0879 L883.6563,953.0879 L883.6563,946.4316 L883.3906,946.4316 Q882.7656,946.4316 882.5,946.1973 Q882.25,945.9629 882.25,945.5723 Q882.25,945.1973 882.5,944.9629 Q882.7656,944.7285 883.3906,944.7285 L891.0156,944.7285 L891.0156,947.3223 Q891.0156,947.9316 890.7813,948.1973 Q890.5625,948.4473 890.1719,948.4473 Q889.7969,948.4473 889.5625,948.1973 Q889.3281,947.9316 889.3281,947.3223 L889.3281,946.4316 L885.3594,946.4316 L885.3594,948.8848 L886.8438,948.8848 Q886.8438,948.2285 886.9688,948.041 Q887.2344,947.6348 887.7031,947.6348 Q888.0781,947.6348 888.3125,947.9004 Q888.5469,948.1504 888.5469,948.7598 L888.5469,950.7285 Q888.5469,951.2754 888.4219,951.4629 Q888.1563,951.8535 887.7031,951.8535 Q887.2344,951.8535 886.9688,951.4473 Q886.8438,951.2598 886.8438,950.5879 L885.3594,950.5879 Z " fill="#000000"/><text fill="#000000" font-family="sans-serif" font-size="12" font-style="italic" lengthAdjust="spacing" textLength="82.0547" x="898.7588" y="945.4492">&#171;Value Object&#187;</text><text fill="#000000" font-family="sans-serif" font-size="14" font-weight="bold" lengthAdjust="spacing" textLength="78.5723" x="900.5" y="963.5684">EntryStatus</text><line style="stroke:#181818;stroke-width:0.5;" x1="872.5" x2="981.0723" y1="972.082" y2="972.082"/><text fill="#000000" font-family="sans-serif" font-size="14" lengthAdjust="spacing" textLength="50.5654" x="877.5" y="991.1895">ACTIVE</text><text fill="#000000" font-family="sans-serif" font-size="14" lengthAdjust="spacing" textLength="77.7793" x="877.5" y="1009.8105">REFUNDED</text><text fill="#000000" font-family="sans-serif" font-size="14" lengthAdjust="spacing" textLength="87.1309" x="877.5" y="1028.4316">SUSPENDED</text><line style="stroke:#181818;stroke-width:0.5;" x1="872.5" x2="981.0723" y1="1035.9453" y2="1035.9453"/></g><!--link User to Role--><g class="link" data-entity-1="User" data-entity-2="Role" data-source-line="33" data-uid="lnk5" id="link_User_Role"><path codeLine="33" d="M122,291.11 C122,328.12 122,360.98 122,391.67" fill="none" id="User-to-Role" style="stroke:#181818;stroke-width:1;"/><polygon fill="#181818" points="122,397.67,126,388.67,122,392.67,118,388.67,122,397.67" style="stroke:#181818;stroke-width:1;"/><text fill="#000000" font-family="sans-serif" font-size="13" lengthAdjust="spacing" textLength="7.23" x="114.8158" y="312.7903">1</text><text fill="#000000" font-family="sans-serif" font-size="13" lengthAdjust="spacing" textLength="7.23" x="114.5841" y="386.544">1</text></g><!--link Game to GameStatus--><g class="link" data-entity-1="Game" data-entity-2="GameStatus" data-source-line="81" data-uid="lnk12" id="link_Game_GameStatus"><path codeLine="81" d="M720.75,1118.17 C720.75,1142.45 720.75,1160.62 720.75,1181.26" fill="none" id="Game-to-GameStatus" style="stroke:#181818;stroke-width:1;"/><polygon fill="#181818" points="720.75,1187.26,724.75,1178.26,720.75,1182.26,716.75,1178.26,720.75,1187.26" style="stroke:#181818;stroke-width:1;"/><text fill="#000000" font-family="sans-serif" font-size="13" lengthAdjust="spacing" textLength="7.23" x="717.4248" y="1140.3562">1</text><text fill="#000000" font-family="sans-serif" font-size="13" lengthAdjust="spacing" textLength="7.23" x="713.3255" y="1176.145">1</text></g><!--link Game to GameFile--><g class="link" data-entity-1="Game" data-entity-2="GameFile" data-source-line="82" data-uid="lnk13" id="link_Game_GameFile"><path codeLine="82" d="M579.5,1130.17 C579.5,1150.82 579.5,1153.39 579.5,1171.78" fill="none" id="Game-GameFile" style="stroke:#181818;stroke-width:1;"/><polygon fill="#181818" points="579.5,1118.17,575.5,1124.17,579.5,1130.17,583.5,1124.17,579.5,1118.17" style="stroke:#181818;stroke-width:1;"/><polygon fill="#181818" points="579.5,1177.78,583.5,1168.78,579.5,1172.78,575.5,1168.78,579.5,1177.78" style="stroke:#181818;stroke-width:1;"/><text fill="#000000" font-family="sans-serif" font-size="13" lengthAdjust="spacing" textLength="7.23" x="568.0088" y="1140.3562">1</text><text fill="#000000" font-family="sans-serif" font-size="13" lengthAdjust="spacing" textLength="19.5127" x="564.2166" y="1166.9597">0..*</text></g><!--link Game to Category--><g class="link" data-entity-1="Game" data-entity-2="Category" data-source-line="83" data-uid="lnk14" id="link_Game_Category"><path codeLine="83" d="M530.29,1030 C442.81,1030 341,1030 341,1030 C341,1030 341,1117.64 341,1181.47" fill="none" id="Game-to-Category" style="stroke:#181818;stroke-width:1;"/><polygon fill="#181818" points="341,1187.47,345,1178.47,341,1182.47,337,1178.47,341,1187.47" style="stroke:#181818;stroke-width:1;"/><text fill="#000000" font-family="sans-serif" font-size="13" lengthAdjust="spacing" textLength="19.5127" x="502.7854" y="1029.3306">0..*</text><text fill="#000000" font-family="sans-serif" font-size="13" lengthAdjust="spacing" textLength="19.5127" x="321.0126" y="1176.3806">1..*</text></g><!--link GameFile to FileType--><g class="link" data-entity-1="GameFile" data-entity-2="FileType" data-source-line="84" data-uid="lnk15" id="link_GameFile_FileType"><path codeLine="84" d="M534,1313.26 C534,1332.82 534,1347.98 534,1366.9" fill="none" id="GameFile-to-FileType" style="stroke:#181818;stroke-width:1;"/><polygon fill="#181818" points="534,1372.9,538,1363.9,534,1367.9,530,1363.9,534,1372.9" style="stroke:#181818;stroke-width:1;"/><text fill="#000000" font-family="sans-serif" font-size="13" lengthAdjust="spacing" textLength="7.23" x="526.6286" y="1335.1642">1</text><text fill="#000000" font-family="sans-serif" font-size="13" lengthAdjust="spacing" textLength="7.23" x="526.5841" y="1361.802">1</text></g><!--link Order to OrderItem--><g class="link" data-entity-1="Order" data-entity-2="OrderItem" data-source-line="118" data-uid="lnk20" id="link_Order_OrderItem"><path codeLine="118" d="M407.75,573.36 C407.75,599.78 407.75,609.44 407.75,633.46" fill="none" id="Order-OrderItem" style="stroke:#181818;stroke-width:1;"/><polygon fill="#181818" points="407.75,561.36,403.75,567.36,407.75,573.36,411.75,567.36,407.75,561.36" style="stroke:#181818;stroke-width:1;"/><polygon fill="#181818" points="407.75,639.46,411.75,630.46,407.75,634.46,403.75,630.46,407.75,639.46" style="stroke:#181818;stroke-width:1;"/><text fill="#000000" font-family="sans-serif" font-size="13" lengthAdjust="spacing" textLength="7.23" x="397.6183" y="582.7062">1</text><text fill="#000000" font-family="sans-serif" font-size="13" lengthAdjust="spacing" textLength="19.5127" x="390.8807" y="628.1837">1..*</text></g><!--link Order to OrderStatus--><g class="link" data-entity-1="Order" data-entity-2="OrderStatus" data-source-line="119" data-uid="lnk21" id="link_Order_OrderStatus"><path codeLine="119" d="M543.25,561.36 C543.25,591.27 543.25,616.76 543.25,642.77" fill="none" id="Order-to-OrderStatus" style="stroke:#181818;stroke-width:1;"/><polygon fill="#181818" points="543.25,648.77,547.25,639.77,543.25,643.77,539.25,639.77,543.25,648.77" style="stroke:#181818;stroke-width:1;"/><text fill="#000000" font-family="sans-serif" font-size="13" lengthAdjust="spacing" textLength="7.23" x="541.7988" y="582.7062">1</text><text fill="#000000" font-family="sans-serif" font-size="13" lengthAdjust="spacing" textLength="7.23" x="532.339" y="637.6562">1</text></g><!--link Library to LibraryEntry--><g class="link" data-entity-1="Library" data-entity-2="LibraryEntry" data-source-line="152" data-uid="lnk26" id="link_Library_LibraryEntry"><path codeLine="152" d="M927.25,545.01 C927.25,572.83 927.25,586.39 927.25,614.93" fill="none" id="Library-LibraryEntry" style="stroke:#181818;stroke-width:1;"/><polygon fill="#181818" points="927.25,533.01,923.25,539.01,927.25,545.01,931.25,539.01,927.25,533.01" style="stroke:#181818;stroke-width:1;"/><polygon fill="#181818" points="927.25,620.93,931.25,611.93,927.25,615.93,923.25,611.93,927.25,620.93" style="stroke:#181818;stroke-width:1;"/><text fill="#000000" font-family="sans-serif" font-size="13" lengthAdjust="spacing" textLength="7.23" x="917.0534" y="554.6809">1</text><text fill="#000000" font-family="sans-serif" font-size="13" lengthAdjust="spacing" textLength="19.5127" x="907.4976" y="609.8305">0..*</text></g><!--link LibraryEntry to EntryStatus--><g class="link" data-entity-1="LibraryEntry" data-entity-2="EntryStatus" data-source-line="153" data-uid="lnk27" id="link_LibraryEntry_EntryStatus"><path codeLine="153" d="M927,793.21 C927,836.82 927,882.6 927,921.43" fill="none" id="LibraryEntry-to-EntryStatus" style="stroke:#181818;stroke-width:1;"/><polygon fill="#181818" points="927,927.43,931,918.43,927,922.43,923,918.43,927,927.43" style="stroke:#181818;stroke-width:1;"/><text fill="#000000" font-family="sans-serif" font-size="13" lengthAdjust="spacing" textLength="7.23" x="919.7296" y="815.3767">1</text><text fill="#000000" font-family="sans-serif" font-size="13" lengthAdjust="spacing" textLength="7.23" x="919.6135" y="916.3357">1</text></g><!--link User to Library--><g class="link" data-entity-1="User" data-entity-2="Library" data-source-line="159" data-uid="lnk28" id="link_User_Library"><path codeLine="159" d="M221.01,168 C442.76,168 960,168 960,168 C960,168 960,281.51 960,366.82" fill="none" id="User-to-Library" style="stroke:#181818;stroke-width:1;"/><polygon fill="none" points="960,378.82,964,372.82,960,366.82,956,372.82,960,378.82" style="stroke:#181818;stroke-width:1;"/><polygon fill="#000000" points="660.7383,159.9445,652.7674,154.7566,651.2403,160.4326,660.7383,159.9445" style="stroke:#000000;stroke-width:1;"/><text fill="#000000" font-family="sans-serif" font-size="13" lengthAdjust="spacing" textLength="30.3481" x="664.91" y="164.0283">owns</text><text fill="#000000" font-family="sans-serif" font-size="13" lengthAdjust="spacing" textLength="7.23" x="228.5611" y="164.4591">1</text><text fill="#000000" font-family="sans-serif" font-size="13" lengthAdjust="spacing" textLength="7.23" x="952.7006" y="367.7107">1</text></g><!--link User to Order--><g class="link" data-entity-1="User" data-entity-2="Order" data-source-line="160" data-uid="lnk29" id="link_User_Order"><path codeLine="160" d="M206.33,291.2 C206.33,335.64 206.33,375 206.33,375 C206.33,375 259.42,375 322.72,375" fill="none" id="User-to-Order" style="stroke:#181818;stroke-width:1;"/><polygon fill="none" points="334.72,375,328.72,371,322.72,375,328.72,379,334.72,375" style="stroke:#181818;stroke-width:1;"/><polygon fill="#000000" points="185.6877,368.567,180.0645,360.8969,176.63,365.667,185.6877,368.567" style="stroke:#000000;stroke-width:1;"/><text fill="#000000" font-family="sans-serif" font-size="13" lengthAdjust="spacing" textLength="37.5781" x="190.63" y="371.0283">places</text><text fill="#000000" font-family="sans-serif" font-size="13" lengthAdjust="spacing" textLength="7.23" x="204.0211" y="312.8855">1</text><text fill="#000000" font-family="sans-serif" font-size="13" lengthAdjust="spacing" textLength="19.5127" x="307.5345" y="366.3184">0..*</text></g><!--link User to Game--><g class="link" data-entity-1="User" data-entity-2="Game" data-source-line="161" data-uid="lnk30" id="link_User_Game"><path codeLine="161" d="M191.67,291.08 C191.67,509.74 191.67,942 191.67,942 C191.67,942 381.45,942 518.41,942" fill="none" id="User-to-Game" style="stroke:#181818;stroke-width:1;"/><polygon fill="none" points="530.41,942,524.41,938,518.41,942,524.41,946,530.41,942" style="stroke:#181818;stroke-width:1;"/><polygon fill="#000000" points="129.9131,781.0241,128.4819,771.6219,123.2287,774.2588,129.9131,781.0241" style="stroke:#000000;stroke-width:1;"/><text fill="#000000" font-family="sans-serif" font-size="13" lengthAdjust="spacing" textLength="54.9263" x="136.67" y="781.9383">publishes</text><text fill="#000000" font-family="sans-serif" font-size="13" lengthAdjust="spacing" textLength="7.23" x="188.5136" y="312.7586">1</text><text fill="#000000" font-family="sans-serif" font-size="13" lengthAdjust="spacing" textLength="19.5127" x="502.9131" y="935.6931">0..*</text></g><!--link Order to Game--><g class="link" data-entity-1="Order" data-entity-2="Game" data-source-line="163" data-uid="lnk31" id="link_Order_Game"><path codeLine="163" d="M571.05,547 C635.78,547 703,547 703,547 C703,547 703,711.68 703,840.75" fill="none" id="Order-to-Game" style="stroke:#181818;stroke-width:1;"/><polygon fill="none" points="703,852.75,707,846.75,703,840.75,699,846.75,703,852.75" style="stroke:#181818;stroke-width:1;"/><polygon fill="#000000" points="634.0488,629.1065,633.0234,619.6514,627.6616,622.0598,634.0488,629.1065" style="stroke:#000000;stroke-width:1;"/><text fill="#000000" font-family="sans-serif" font-size="13" lengthAdjust="spacing" textLength="61.4199" x="641" y="629.9283">references</text><text fill="#000000" font-family="sans-serif" font-size="13" lengthAdjust="spacing" textLength="7.23" x="579.587" y="549.8551">1</text><text fill="#000000" font-family="sans-serif" font-size="13" lengthAdjust="spacing" textLength="19.5127" x="686.3099" y="841.6087">1..*</text></g><!--link OrderItem to Game--><g class="link" data-entity-1="OrderItem" data-entity-2="Game" data-source-line="164" data-uid="lnk32" id="link_OrderItem_Game"><path codeLine="164" d="M480.72,770 C530.35,770 579.5,770 579.5,770 C579.5,770 579.5,796.35 579.5,840.7" fill="none" id="OrderItem-to-Game" style="stroke:#181818;stroke-width:1;"/><polygon fill="none" points="579.5,852.7,583.5,846.7,579.5,840.7,575.5,846.7,579.5,852.7" style="stroke:#181818;stroke-width:1;"/><polygon fill="#000000" points="504.5259,782.5556,498.8811,774.9013,495.4601,779.6811,504.5259,782.5556" style="stroke:#000000;stroke-width:1;"/><text fill="#000000" font-family="sans-serif" font-size="13" lengthAdjust="spacing" textLength="61.4199" x="509.46" y="785.0283">references</text><text fill="#000000" font-family="sans-serif" font-size="13" lengthAdjust="spacing" textLength="7.23" x="488.4537" y="771.0389">1</text><text fill="#000000" font-family="sans-serif" font-size="13" lengthAdjust="spacing" textLength="7.23" x="568.0088" y="841.5559">1</text></g><!--link LibraryEntry to Game--><g class="link" data-entity-1="LibraryEntry" data-entity-2="Game" data-source-line="166" data-uid="lnk33" id="link_LibraryEntry_Game"><path codeLine="166" d="M852.75,793.07 C852.75,840.96 852.75,891 852.75,891 C852.75,891 830.03,891 789.61,891" fill="none" id="LibraryEntry-to-Game" style="stroke:#181818;stroke-width:1;"/><polygon fill="none" points="777.61,891,783.61,895,789.61,891,783.61,887,777.61,891" style="stroke:#181818;stroke-width:1;"/><polygon fill="#000000" points="855.0406,874.4578,862.412,868.4483,857.4719,865.2632,855.0406,874.4578" style="stroke:#000000;stroke-width:1;"/><text fill="#000000" font-family="sans-serif" font-size="13" lengthAdjust="spacing" textLength="61.4199" x="866.75" y="875.6383">references</text><text fill="#000000" font-family="sans-serif" font-size="13" lengthAdjust="spacing" textLength="7.23" x="839.0987" y="815.2247">1</text><text fill="#000000" font-family="sans-serif" font-size="13" lengthAdjust="spacing" textLength="7.23" x="784.9767" y="882.0701">1</text></g><!--SRC=[pLVHZk8s57tdAonUocuxg-ah6Y5bmCD4om0YC58VJU8DtdNir75cH2kallK7sY_QF-cNzDe9mII1NVPbG8WaliVNzrxVSnooBqoaH944XPnacQUrOkjSKp-K8c1_K7JRoOuX3rBeG6yvHMl98yUQal0BYMbXKpJKHCISEW3E1DNRb2Afz4PsEfsVq7___FLMNrZT6uyNUEmjSH-jCghUE9woVgXhOa5U72iQ4qsxwCzE1y77Ljy6YkxkAZDQIAa70m2XydE3M0G9hVoHCvJ3D44IsaS1xB287HDD2ECjuoaizofLz4YoJOjPIGxU5l3h399GinSONaiO9yAnX8f2j96d-sWYGy97yBHaYJFvfhhz6KNKUW9CxrqVlKWMESPm0vr5pSgzGn1D6Ciy6utnuCQpAyf9HPxOcL3DPy9pYcRhpz2rHxNqHa_-j7gQh-udVl285zN8_UgtygdqQhUd-siNqXdOgotGxgfwVGnzS2szRc8vsUlMU7clQwPvMwD7D0iLIpMJegtT5GjXrZsBHpHa2U6EBTD4vrbHkS3UkqGWhx6NCZzgSNfPrvCqLVAbhUKLJTeD98eU613X4_mOVly2jDMR9YvF8rXwRdBiDJ9ruJjt0uOm9vPg2vk01PHr- -tYdn2PKxNVrVVRP7EEaJTedsghPEasgJ8pbd3mzD53UUSgOyebYKxjaIiMXzq_5-0SJqV-T7oGaE7IVyRLum8_pPxngE5y7zavr_wJDpvu2eOBZAV1usnP3Gt1zP4SMGQvSbJhuCh-tW9kFtnutwssmK4KXiA9lTrtHeMn- -QkL9NwkiHlfgBhEUbjC2Vbhx3-WFv9JVZyE-JCBj3GCoP0348wR-VIPOeMoYJb54xn5gSj1piH8ULj9pxXOSxDIYOr0wZbjMlKpTSqkK2spgb_-Ie2qlMHRfibSVEDgQ0AulJSARqMVRMST-f_YQ8CPq_p2LxYG_n3Rph4aycnh1JjSo1tGTogE3NCdhPkJrmNSoTihGWepfLmjmpd97ltzilvU-5BGnGP_Ut5zlG_wjKcaUIho2gqNoxzhlc-RZfP0tSKevbftmdBz5sPaHdU3fgqSyqNCEyRx0BxxpbJPyjH2PfTkoveDqVlKPzo4RKeJ9PdAQrPNAewdi_-NwWVzW-hwSWXQh0A39kFYRhlbFevx1RK1HOLTadhvdq5f5tWYVVrxw__uW3XwNA1WSM6nADPyCQXEV_EfBtkIz-tp4236kBs89a0IJa9wIcGVKy2JBxcBDjOMCTLLxaNu188dKWL5ON3mudb1jU6xBJqm6dq_m00]--></g></svg>